<svg width="13" height="14" viewBox="0 0 13 14" fill="none" xmlns="http://www.w3.org/2000/svg">
<path d="M8.66666 2.16667H10.6667C11.0348 2.16667 11.3333 2.46514 11.3333 2.83333V12.5C11.3333 12.8682 11.0348 13.1667 10.6667 13.1667H2.33332C1.96513 13.1667 1.66666 12.8682 1.66666 12.5V2.83333C1.66666 2.46514 1.96513 2.16667 2.33332 2.16667H4.33332M4.99999 3.83333H7.99999C8.36818 3.83333 8.66666 3.53486 8.66666 3.16667V1.5C8.66666 1.13181 8.36818 0.833334 7.99999 0.833334H4.99999C4.6318 0.833334 4.33332 1.13181 4.33332 1.5V3.16667C4.33332 3.53486 4.6318 3.83333 4.99999 3.83333Z" stroke="#9DA4B2" stroke-width="1.5" stroke-linecap="square" stroke-linejoin="round"/>
</svg>
